<?xml version="1.0" standalone="no"?>
<!DOCTYPE svg PUBLIC "-//W3C//DTD SVG 20010904//EN"
 "http://www.w3.org/TR/2001/REC-SVG-20010904/DTD/svg10.dtd">
<svg version="1.0" xmlns="http://www.w3.org/2000/svg"
 width="108.000000pt" height="108.000000pt" viewBox="0 0 108.000000 108.000000"
 preserveAspectRatio="xMidYMid meet">
<metadata>
Created by potrace 1.14, written by Peter Selinger 2001-2017
</metadata>
<g transform="translate(0.000000,108.000000) scale(0.100000,-0.100000)"
fill="#000000" stroke="none">
<path d="M675 1038 c-65 -26 -98 -50 -179 -133 -73 -75 -111 -128 -122 -169
-3 -14 -10 -26 -15 -26 -5 0 -29 -9 -53 -21 -43 -20 -226 -189 -226 -209 0 -5
-3 -10 -7 -10 -19 0 -47 -98 -47 -160 -1 -113 61 -212 163 -263 66 -32 188
-31 251 2 66 35 227 202 256 266 21 46 30 55 71 70 34 13 74 45 144 115 124
124 143 159 144 265 0 106 -31 169 -119 242 -56 47 -183 62 -261 31z m193
-130 c31 -24 39 -34 54 -63 19 -38 15 -112 -7 -155 -27 -53 -187 -205 -198
-189 -2 2 -12 24 -22 48 -26 58 -94 125 -150 147 -25 9 -45 19 -45 21 0 20
104 132 166 180 54 41 157 47 202 11z m-297 -379 l22 -31 -24 12 c-32 17 -59
41 -71 63 -9 17 -8 17 21 3 16 -9 39 -30 52 -47z m-181 9 c11 -24 30 -55 42
-69 29 -33 95 -76 130 -84 27 -7 27 -8 13 -36 -18 -34 -128 -148 -168 -174
-41 -26 -141 -26 -187 1 -69 40 -92 129 -55 208 25 52 168 194 197 196 5 0 17
-19 28 -42z"/>
</g>
</svg>
